<?xml version="1.0" encoding="UTF-8"?>
<svg version="1.1" xmlns="http://www.w3.org/2000/svg" width="210" height="240">
<path d="M0 0 C69.3 0 138.6 0 210 0 C210 79.2 210 158.4 210 240 C140.7 240 71.4 240 0 240 C0 160.8 0 81.6 0 0 Z " fill="#FEFEFE" transform="translate(0,0)"/>
<path d="M0 0 C17.82 0 35.64 0 54 0 C55.7325 4.063125 57.465 8.12625 59.25 12.3125 C64.0855943 23.62911989 69.02522636 34.89262281 74.07714844 46.11450195 C77.98892761 54.83969729 77.98892761 54.83969729 79.52734375 59.078125 C80.96382709 63.03046889 82.71126333 66.80945478 84.47021484 70.62744141 C87.85937598 78.09917329 91.06399493 85.65382503 94.3125 93.1875 C95.06045073 94.91996338 95.80849687 96.65238558 96.55664062 98.38476562 C98.37219345 102.58936998 100.18645624 106.79452873 102 111 C109.44565184 94.41832074 116.71443979 77.7696003 123.83422852 61.0456543 C128.86409628 49.24200056 128.86409628 49.24200056 131.4609375 43.59375 C133.6222153 38.88789181 135.67030788 34.1389541 137.69921875 29.375 C138.18566109 28.23327332 138.18566109 28.23327332 138.68193054 27.06848145 C140.02847632 23.9051294 141.3733766 20.74108941 142.71508789 17.57568359 C143.70712882 15.23681014 144.70290814 12.8995572 145.69921875 10.5625 C146.15236702 9.48911377 146.15236702 9.48911377 146.6146698 8.39404297 C147.89717703 5.39124118 149.18265964 2.72601054 151 0 C153.25259399 -0.36076355 153.25259399 -0.36076355 156.09228516 -0.34057617 C157.15323395 -0.34034958 158.21418274 -0.34012299 159.30728149 -0.33988953 C161.03076309 -0.31666374 161.03076309 -0.31666374 162.7890625 -0.29296875 C164.54940323 -0.28660149 164.54940323 -0.28660149 166.3453064 -0.28010559 C170.10543454 -0.26326976 173.86503297 -0.22560777 177.625 -0.1875 C180.16926311 -0.17245954 182.7135346 -0.15877003 185.2578125 -0.14648438 C191.50539005 -0.11335017 197.75265719 -0.06310206 204 0 C202.76913463 3.89620056 201.36498699 7.51807382 199.53125 11.16796875 C199.04793213 12.13331543 198.56461426 13.09866211 198.06665039 14.09326172 C197.54965576 15.11436035 197.03266113 16.13545898 196.5 17.1875 C195.96173584 18.25758301 195.42347168 19.32766602 194.86889648 20.43017578 C191.27944796 27.54125741 187.60153461 34.60089245 183.86132812 41.63354492 C179.70815784 49.47668524 175.77357238 57.42637217 171.82324219 65.37304688 C168.17805463 72.68922863 164.43446843 79.94300151 160.59765625 87.16015625 C157.64426816 92.73132015 154.80246949 98.35156129 152 104 C148.89612951 110.25562175 145.7220129 116.46241895 142.4375 122.625 C137.23106021 132.40834275 132.31543981 142.33426008 127.37771606 152.25482178 C122.75409874 161.54050121 118.08073659 170.78955907 113.20556641 179.9465332 C109.67950083 186.57048819 106.31626193 193.26864714 103 200 C102.34 200 101.68 200 101 200 C100.50371094 198.91203125 100.00742188 197.8240625 99.49609375 196.703125 C94.90063792 186.72214099 94.90063792 186.72214099 89.5625 177.125 C86.59167338 172.19826717 84.10849028 167.14763028 81.6875 161.9375 C78.77721847 155.68067083 75.75704367 149.52107812 72.5 143.4375 C67.65643558 134.37873076 63.07558203 125.19588629 58.5 116 C52.12722423 103.20046535 45.63996879 90.47837911 38.86279297 77.88720703 C34.1384256 69.10764046 29.66390966 60.27048987 25.44726562 51.23535156 C21.26516417 42.33117195 16.647467 33.66781963 12 25 C11.24326247 23.58475683 10.48674402 22.16939649 9.73046875 20.75390625 C9.37605713 20.09060303 9.02164551 19.4272998 8.65649414 18.74389648 C0 2.53525148 0 2.53525148 0 0 Z " fill="#AEDDFF" transform="translate(3,37)"/>
<path d="M0 0 C17.82 0 35.64 0 54 0 C55.7325 4.063125 57.465 8.12625 59.25 12.3125 C64.0855943 23.62911989 69.02522636 34.89262281 74.07714844 46.11450195 C77.98892761 54.83969729 77.98892761 54.83969729 79.52734375 59.078125 C81.84840861 65.45289748 84.72185468 71.61955694 87.89073181 77.61489868 C101.52653581 103.42950526 104.16353671 125.40115809 103.09863281 154.33404541 C102.9309815 159.39667925 102.86106415 164.4607458 102.78125 169.52539062 C102.61278546 179.35380565 102.34209049 189.1761948 102 199 C99.81566916 196.14128343 98.02140628 193.33740918 96.36328125 190.140625 C95.62718628 188.72644287 95.62718628 188.72644287 94.8762207 187.28369141 C94.36019287 186.28257324 93.84416504 185.28145508 93.3125 184.25 C92.7764917 183.21665527 92.2404834 182.18331055 91.68823242 181.11865234 C88.35685709 174.68002784 85.08441107 168.21464812 81.8684082 161.71777344 C79.49228609 156.93475841 77.01347556 152.21210075 74.5 147.5 C70.18550163 139.40414284 66.07364991 131.21903706 62 123 C54.11828835 107.11737184 46.09849445 91.32842862 37.6953125 75.71484375 C33.37112675 67.65588 29.31512131 59.5231299 25.44726562 51.23535156 C21.26516417 42.33117195 16.647467 33.66781963 12 25 C11.24326247 23.58475683 10.48674402 22.16939649 9.73046875 20.75390625 C9.37605713 20.09060303 9.02164551 19.4272998 8.65649414 18.74389648 C0 2.53525148 0 2.53525148 0 0 Z " fill="#7BC6FF" transform="translate(3,37)"/>
<path d="M0 0 C31.68 0 63.36 0 96 0 C94.04451572 5.86645284 92.05808523 11.56139834 89.6875 17.25 C89.38336182 17.98524902 89.07922363 18.72049805 88.76586914 19.47802734 C86.47501966 24.97105618 84.00030407 30.36371475 81.46875 35.75 C79.56531656 39.96185273 77.87289505 44.2430303 76.18383789 48.54418945 C74.31947111 53.26917294 72.26936286 57.87988625 70.13671875 62.48828125 C68.72329725 65.61140849 67.46947524 68.78317138 66.21484375 71.97265625 C63.60156859 78.48483711 60.8311831 84.93325255 58.09960938 91.39648438 C56.2291321 95.82516326 54.36490132 100.25647096 52.5 104.6875 C51.82294451 106.29558464 51.14586382 107.90365867 50.46875 109.51171875 C49.9840625 110.66285156 49.499375 111.81398438 49 113 C46.5615051 110.81000591 45.33392282 108.89515176 44.1171875 105.86328125 C43.76333984 104.99638672 43.40949219 104.12949219 43.04492188 103.23632812 C42.65884766 102.27146484 42.27277344 101.30660156 41.875 100.3125 C40.98877939 98.14119145 40.10060788 95.97067857 39.2109375 93.80078125 C38.966922 93.20395538 38.72290649 92.60712952 38.47149658 91.99221802 C34.90465254 83.29024467 31.18950331 74.65045287 27.5 66 C22.2836258 53.76054794 17.0820231 41.51699159 12.04296875 29.203125 C10.15837181 24.63020596 8.13301956 20.19866946 5.8815918 15.79541016 C4.6670253 13.32187871 3.72338274 10.78630421 2.8125 8.1875 C2.48894531 7.27355469 2.16539063 6.35960937 1.83203125 5.41796875 C1.2117155 3.6152671 0.60287021 1.80861062 0 0 Z " fill="#1B98F5" transform="translate(57,2)"/>
<path d="M0 0 C15.51 0 31.02 0 47 0 C46.29641425 3.51792874 45.65858219 6.16960738 44.36328125 9.40625 C44.03634277 10.22585205 43.7094043 11.0454541 43.37255859 11.88989258 C43.02273926 12.75122803 42.67291992 13.61256348 42.3125 14.5 C41.77230225 15.84130981 41.77230225 15.84130981 41.22119141 17.2097168 C38.79498761 23.18261488 36.19329587 29.02943093 33.43359375 34.85546875 C31.53130182 39.02807094 29.85928945 43.27754136 28.18359375 47.54492188 C26.31922492 52.269625 24.26925453 56.88012033 22.13671875 61.48828125 C20.72329725 64.61140849 19.46947524 67.78317138 18.21484375 70.97265625 C15.60156859 77.48483711 12.8311831 83.93325255 10.09960938 90.39648438 C8.2291321 94.82516326 6.36490132 99.25647096 4.5 103.6875 C3.82294451 105.29558464 3.14586382 106.90365867 2.46875 108.51171875 C1.9840625 109.66285156 1.499375 110.81398438 1 112 C0.67 112 0.34 112 0 112 C0 75.04 0 38.08 0 0 Z " fill="#1968C0" transform="translate(105,3)"/>
</svg>
